<svg width="256" height="256" viewBox="0 0 256 256" xmlns="http://www.w3.org/2000/svg"><defs><style/></defs><path d="M229.35 94.9c1.8-2.8 1-6.5-1.8-8.3-2.8-1.8-6.5-1-8.3 1.8-20.05 31-54.05 49.55-90.95 49.55-36.9 0-70.9-18.5-90.95-49.55a5.99 5.99 0 0 0-8.3-1.8 5.99 5.99 0 0 0-1.8 8.3c5.8 8.95 12.6 16.95 20.25 23.9l-14.15 17.15c-2.1 2.55-1.75 6.35.8 8.45 1.1.9 2.45 1.35 3.8 1.35 1.75 0 3.45-.75 4.65-2.2l14.15-17.15c7.9 5.85 16.5 10.7 25.6 14.45l-13.4 20.7c-1.8 2.8-1 6.5 1.8 8.3 1 .65 2.15.95 3.25.95 1.95 0 3.9-.95 5.05-2.75L94 144.95c9.1 2.7 18.6 4.35 28.3 4.8v29.7c0 3.3 2.7 6 6 6s6-2.7 6-6v-29.7c9.5-.45 18.85-2.05 27.75-4.65l14.85 23.8a6.05 6.05 0 0 0 5.1 2.8c1.1 0 2.2-.3 3.15-.9a5.992 5.992 0 0 0 1.9-8.25l-13.4-21.5c9.35-3.8 18.15-8.75 26.25-14.8l13.3 17.1c1.2 1.5 2.95 2.3 4.75 2.3 1.3 0 2.6-.4 3.7-1.25 2.6-2.05 3.1-5.8 1.05-8.4l-13.55-17.4c7.65-6.85 14.45-14.85 20.2-23.7z" fill="#999" class="transform-group"/></svg>