<svg width="256" height="256" viewBox="0 0 256 256" xmlns="http://www.w3.org/2000/svg"><defs><style/></defs><path d="M128 48q-42.5.5-76.125 22.125T0 128q18.25 36.25 51.875 57.875T128 208q42.25-.5 75.875-22.125T256 128q-18.5-36.25-52.125-57.875T128 48m63 42.5q22.75 14.5 37.5 37.5-14.75 23-37.5 37.5-14.25 9-30.25 13.75T127.875 184Q111 184 95 179.25T64.75 165.5Q42 151 27.5 128 42 105 64.75 90.5l3-2Q64 99 64 110.5q.75 27.25 18.75 45.25T128 174.5q27.25-.75 45.25-18.75T192 110.5q0-11.5-4-22m-60 14q-.25 10.25-7 17t-17 6.75q-10.25 0-17-6.75t-6.75-17q0-10.25 6.75-17t17-6.75q10.25 0 17 6.75t7 17" fill="#999" class="transform-group"/></svg>