<svg width="256" height="256" viewBox="0 0 256 256" xmlns="http://www.w3.org/2000/svg"><defs><style/></defs><path d="M139.328 128.312l66.32-65.976a7.991 7.991 0 0 0 .032-11.312 7.984 7.984 0 0 0-11.312-.032l-66.336 65.984-65.76-65.96C59.16 47.896 54.096 47.88 50.96 51c-3.128 3.12-3.136 8.184-.016 11.32l65.744 65.944L50.4 194.2a7.991 7.991 0 0 0-.032 11.312 7.984 7.984 0 0 0 5.672 2.36c2.04 0 4.08-.776 5.64-2.328l66.304-65.952 66.36 66.56a7.958 7.958 0 0 0 5.664 2.352 7.998 7.998 0 0 0 5.664-13.648l-66.344-66.544z" fill="#00CABE" class="transform-group"/></svg>