<svg width="256" height="256" viewBox="0 0 256 256" xmlns="http://www.w3.org/2000/svg"><defs><style/></defs><path d="M202.667 77.333a8 8 0 0 1 .77 15.964l-.77.036h-8v88c0 15.806-12.5 28.691-28.154 29.31l-1.18.024H90.667c-15.805 0-28.691-12.5-29.31-28.154l-.024-1.18v-88h-8a8 8 0 0 1-.77-15.963l.77-.037h149.334zm-24 16H77.333v88c0 7.07 5.502 12.854 12.457 13.305l.877.029h74.666c7.07 0 12.854-5.502 13.305-12.457l.029-.877v-88zm-69.334 21.334a8.001 8.001 0 0 1 7.964 7.23l.036.77V160a8 8 0 0 1-15.963.77l-.037-.77v-37.333a8 8 0 0 1 8-8zm37.334 0a8 8 0 0 1 7.963 7.23l.037.77V160a8 8 0 0 1-15.964.77l-.036-.77v-37.333a8 8 0 0 1 8-8zM152 48a8 8 0 0 1 0 16h-48a8 8 0 0 1 0-16h48z" fill="#00CABE" class="transform-group"/></svg>