<svg width="256" height="256" viewBox="0 0 256 256" xmlns="http://www.w3.org/2000/svg"><defs><style/></defs><path d="M221.976 74.552c-3.216-3.016-8.288-2.872-11.304.352L103.984 188.496l-58.28-57.424c-3.152-3.104-8.216-3.072-11.32.08a7.991 7.991 0 0 0 .088 11.312l64.12 63.168c.024.024.056.032.08.056s.032.056.056.08c.504.48 1.112.752 1.696 1.072.288.168.536.416.84.536.944.368 1.944.56 2.936.56a7.84 7.84 0 0 0 3.072-.624c.328-.136.584-.416.888-.592.6-.352 1.224-.648 1.736-1.168.024-.024.032-.064.056-.088.016-.024.048-.032.072-.056L222.32 85.856c3.04-3.208 2.872-8.272-.344-11.304z" fill="#00CABE" class="transform-group"/></svg>