<svg width="256" height="256" viewBox="0 0 256 256" xmlns="http://www.w3.org/2000/svg">
    <defs>
        <style/>
    </defs>
    <path d="M41.531 224a9.57 9.57 0 0 1-6.692-2.773c-3.346-3.346-3.824-8.604-.956-12.428l39.77-53.824-31.166-31.166c-3.059-3.06-3.633-7.84-1.434-11.568 1.53-2.39 14.34-21.032 42.83-14.053.478.095.956.095 1.53.191 1.147.095 2.485.191 3.919.478 6.023.956 16.73-3.824 26.004-11.759 8.89-7.553 14.627-16.348 14.627-22.467 0-1.434 0-2.963-.096-4.398-.191-5.735-.573-14.53 5.928-21.032 7.743-7.743 20.076-8.413 28.584-1.433.191.095.287.286.478.477 4.59 4.494 51.625 51.53 52.103 52.008 4.015 4.015 6.31 9.465 6.31 15.2s-2.199 11.09-6.31 15.106c-6.501 6.5-15.392 6.214-21.224 5.927-1.338 0-2.867-.096-4.302-.096-5.736 0-12.619 4.016-19.407 11.377-9.464 10.325-15.296 23.613-14.818 29.636.19 1.913.573 5.259.669 5.737 6.883 27.915-11.759 40.63-13.958 42.064-3.824 2.295-8.7 1.721-11.759-1.338l-33.269-33.27c-1.912-1.912-1.912-4.876 0-6.788s4.876-1.912 6.788 0l33.269 33.27c1.434-.956 14.914-10.23 9.56-32.027-.095-.478-.573-4.398-.86-6.692-.765-9.56 6.692-25.43 17.304-36.998 6.023-6.596 15.583-14.435 26.386-14.435 1.434 0 3.06 0 4.589.095 6.023.287 10.803.191 14.15-3.155 2.198-2.199 3.441-5.162 3.441-8.413 0-3.155-1.243-6.118-3.537-8.413-.478-.478-50.573-50.573-52.103-51.912-4.493-3.728-11.377-3.346-15.679.956-3.346 3.346-3.441 8.127-3.155 14.054 0 1.625.096 3.25.096 4.684 0 8.987-6.692 20.172-17.973 29.733-9.274 7.839-22.945 15.678-33.748 13.958-1.147-.192-2.294-.287-3.25-.383-.574-.096-1.243-.096-1.721-.19-.478 0-.86-.097-1.339-.288-21.988-5.449-31.261 8.127-32.313 9.656l34.13 34.034c1.625 1.625 1.912 4.302.478 6.214l-42.256 57.17 44.55-32.6c2.103-1.53 5.163-1.052 6.692 1.051 1.53 2.103 1.052 5.163-1.051 6.692l-44.55 32.505c-1.34 1.051-3.347 1.625-5.259 1.625z" fill="#00CABE" class="transform-group"/>
</svg>